<svg width="24" height="24" viewBox="0 0 24 24" fill="none" xmlns="http://www.w3.org/2000/svg">
<path d="M23.5403 12.2658C23.5403 11.2792 23.4601 10.5592 23.2867 9.8125H12.0078V14.2658H18.6283C18.4948 15.3725 17.7741 17.0391 16.1723 18.1591L16.1498 18.3082L19.716 21.0678L19.9631 21.0925C22.2322 18.9991 23.5403 15.9191 23.5403 12.2658Z" fill="#4285F4"/>
<path d="M12.0129 23.9997C15.2564 23.9997 17.9793 22.933 19.9682 21.093L16.1774 18.1596C15.163 18.8663 13.8015 19.3596 12.0129 19.3596C8.83614 19.3596 6.13991 17.2664 5.17878 14.373L5.0379 14.385L1.32974 17.2517L1.28125 17.3863C3.2567 21.3063 7.31443 23.9997 12.0129 23.9997Z" fill="#34A853"/>
<path d="M5.17888 14.3731C4.92528 13.6264 4.77851 12.8264 4.77851 11.9998C4.77851 11.173 4.92528 10.3731 5.16554 9.62642L5.15882 9.4674L1.4042 6.55469L1.28136 6.61306C0.467177 8.23974 0 10.0664 0 11.9998C0 13.9331 0.467177 15.7597 1.28136 17.3864L5.17888 14.3731Z" fill="#FBBC05"/>
<path d="M12.0129 4.63996C14.2686 4.63996 15.7902 5.61328 16.6579 6.42667L20.0482 3.11999C17.966 1.18667 15.2564 0 12.0129 0C7.31443 0 3.2567 2.69331 1.28125 6.61327L5.16544 9.62663C6.13991 6.73331 8.83614 4.63996 12.0129 4.63996Z" fill="#EB4335"/>
</svg>
