<svg width="94" height="14" viewBox="0 0 94 14" fill="none" xmlns="http://www.w3.org/2000/svg">
<g clip-path="url(#clip0_497_1131)">
<path d="M2.93778 0.380556L7.6534 5.85614L12.2683 0.372117L14.4128 0.356445V13.6669H12.1936V4.03457L7.66132 9.26543L3.15506 3.86097V13.6633H0.872508L0.871376 1.70545L0 0.407078L2.93778 0.380556Z" fill="white"/>
<path d="M48.9379 1.76534C48.5192 2.41996 48.1458 2.995 47.7633 3.59537C46.0058 2.32954 44.0775 1.85697 42.002 2.02816C40.9821 2.09838 39.9912 2.41809 39.1061 2.96245C37.6734 3.8642 36.8349 5.15172 36.8428 6.98174C36.8507 8.81176 37.6282 10.2138 39.114 11.0637C41.5165 12.4368 43.9802 12.2307 46.4042 11.0854C46.5717 11.0058 46.7663 10.7515 46.7742 10.5694C46.8116 9.6906 46.7912 8.80814 46.7912 7.8642H43.3442V6.65865L49.0534 5.85576V6.50555C49.0534 8.15353 49.0319 9.80151 49.067 11.4483C49.0771 11.9305 48.9063 12.1716 48.5419 12.3874C47.3144 13.094 45.9805 13.5668 44.6003 13.7846C42.8112 14.0788 41.0277 14.0848 39.2951 13.4615C37.0012 12.6357 35.2902 11.1348 34.7187 8.51881C34.0793 5.59175 35.1713 2.94799 37.6067 1.43623C39.5938 0.201754 41.7542 -0.171964 44.0277 0.065528C45.3857 0.206577 46.6973 0.532072 47.9274 1.17824C48.2465 1.34823 48.5532 1.54232 48.9379 1.76534Z" fill="white"/>
<path d="M90.1708 7.81454L94.0025 13.6614L92.5563 13.6904L87.8192 7.86035L84.7852 7.83263V13.6795H82.5219L82.5332 1.78802L81.5 0.357038C81.5 0.357038 86.4657 0.344983 88.5774 0.365477C89.6581 0.375122 90.7106 0.565598 91.6917 1.0888C93.8928 2.27265 94.1814 5.48663 92.1444 6.97548C91.5797 7.39139 90.1708 7.81454 90.1708 7.81454ZM84.8429 2.29917V5.95318C84.9018 5.95318 89.0119 5.97609 89.7011 5.97609C90.3903 5.97609 91.3986 5.42997 91.3986 4.12557C91.3986 2.82117 89.9886 2.31726 89.4838 2.31726C88.9791 2.31726 84.9368 2.29917 84.8429 2.29917Z" fill="white"/>
<path d="M69.6496 11.7068H78.3634V13.673H67.375V0.386719H78.3521V2.34935H69.6383V5.84543H78.0126V7.81047H69.6383L69.6496 11.7068Z" fill="white"/>
<path d="M18.1172 0.389648H20.4393L20.5672 8.64764C20.6657 10.5307 21.5857 11.5675 23.3296 11.8315C24.3533 11.9769 25.3922 11.9488 26.4077 11.7483C27.8721 11.4662 28.7491 10.2751 28.8147 8.61388C28.903 6.38965 28.9336 0.400502 28.9336 0.400502H31.1494L31.1788 7.64583C31.1788 7.64583 31.0735 9.12744 30.9298 9.84956C30.5371 11.8218 29.367 13.0623 27.5665 13.5868C25.7429 14.127 23.8174 14.1424 21.9863 13.6314C19.7864 13.0286 18.4782 11.5651 18.3311 9.17084C18.1489 6.26548 18.1172 0.389648 18.1172 0.389648Z" fill="white"/>
<path d="M53.3359 0.384766H55.5698V11.6819H63.9916V13.6663H53.3359V0.384766Z" fill="white"/>
</g>
<defs>
<clipPath id="clip0_497_1131">
<rect width="94" height="14" fill="white"/>
</clipPath>
</defs>
</svg>
