<svg width="136" height="19" viewBox="0 0 136 19" fill="none" xmlns="http://www.w3.org/2000/svg">
<g clip-path="url(#clip0_227_614)">
<path d="M4.25041 0.517097L11.073 7.94825L17.7499 0.505644L20.8525 0.484375V18.5485H17.6418V5.47611L11.0845 12.5751L4.56477 5.24051V18.5436H1.26235L1.26071 2.31517L0 0.553091L4.25041 0.517097Z" fill="#0F0F0F"/>
<path d="M70.8012 2.39457C70.1954 3.28297 69.6551 4.06339 69.1017 4.87817C66.559 3.16027 63.769 2.51892 60.7662 2.75124C59.2907 2.84654 57.8569 3.28043 56.5764 4.01922C54.5036 5.24302 53.2903 6.99037 53.3018 9.47397C53.3133 11.9576 54.4381 13.8603 56.5878 15.0138C60.0638 16.8773 63.6282 16.5975 67.1353 15.0432C67.3776 14.9353 67.6592 14.59 67.6707 14.343C67.7247 13.1503 67.6952 11.9527 67.6952 10.6716H62.708V9.03549L70.9682 7.94585V8.82771C70.9682 11.0642 70.9371 13.3008 70.9878 15.5357C71.0026 16.1901 70.7553 16.5174 70.2281 16.8102C68.4521 17.7691 66.5223 18.4108 64.5254 18.7065C61.9369 19.1057 59.3565 19.1139 56.8498 18.268C53.531 17.1473 51.0554 15.1103 50.2286 11.56C49.3035 7.58754 50.8835 3.99958 54.407 1.94792C57.2821 0.272554 60.4077 -0.234636 63.697 0.0876753C65.6617 0.279099 67.5593 0.720842 69.3391 1.59779C69.8008 1.82848 70.2445 2.09189 70.8012 2.39457Z" fill="#0F0F0F"/>
<path d="M130.459 10.6061L136.003 18.5412L133.91 18.5805L127.057 10.6683L122.667 10.6307V18.5658H119.393L119.409 2.4273L117.914 0.485248C117.914 0.485248 125.098 0.468889 128.154 0.496702C129.717 0.509791 131.24 0.768295 132.66 1.47836C135.844 3.08501 136.262 7.44684 133.314 9.46742C132.497 10.0319 130.459 10.6061 130.459 10.6061ZM122.751 3.121V8.08001C122.836 8.08001 128.782 8.1111 129.78 8.1111C130.777 8.1111 132.235 7.36995 132.235 5.59969C132.235 3.82943 130.195 3.14554 129.465 3.14554C128.735 3.14554 122.887 3.121 122.751 3.121Z" fill="#0F0F0F"/>
<path d="M100.768 15.8884H113.375V18.5568H97.4766V0.525391H113.358V3.18896H100.751V7.93364H112.867V10.6005H100.751L100.768 15.8884Z" fill="#0F0F0F"/>
<path d="M26.2109 0.529297H29.5707L29.7557 11.7366C29.8981 14.2922 31.2292 15.6992 33.7523 16.0575C35.2335 16.2548 36.7365 16.2167 38.2057 15.9446C40.3244 15.5618 41.5933 13.9453 41.6883 11.6908C41.816 8.67215 41.8602 0.544026 41.8602 0.544026H45.066L45.1086 10.377C45.1086 10.377 44.9563 12.3877 44.7484 13.3678C44.1802 16.0444 42.4873 17.728 39.8823 18.4397C37.2439 19.1728 34.458 19.1937 31.8088 18.5002C28.6259 17.6821 26.7332 15.6959 26.5204 12.4466C26.2568 8.50363 26.2109 0.529297 26.2109 0.529297Z" fill="#0F0F0F"/>
<path d="M77.1719 0.521484H80.4039V15.8534H92.5886V18.5464H77.1719V0.521484Z" fill="#0F0F0F"/>
</g>
<defs>
<clipPath id="clip0_227_614">
<rect width="136" height="19" fill="white"/>
</clipPath>
</defs>
</svg>
