<svg width="20" height="20" viewBox="0 0 20 20" fill="none" xmlns="http://www.w3.org/2000/svg">
<path d="M10.0003 0C4.47761 0 0 4.47709 0 9.99993C0 14.0946 2.46233 17.6123 5.98583 19.1589C5.9577 18.4606 5.98079 17.6224 6.15989 16.8627C6.35214 16.0508 7.44665 11.4138 7.44665 11.4138C7.44665 11.4138 7.12712 10.7753 7.12712 9.83155C7.12712 8.34971 7.98612 7.24296 9.05573 7.24296C9.96534 7.24296 10.4048 7.92615 10.4048 8.74419C10.4048 9.65859 9.8216 11.0263 9.52165 12.293C9.27112 13.3538 10.0535 14.219 11.1 14.219C12.9947 14.219 14.2708 11.7856 14.2708 8.90236C14.2708 6.71072 12.7946 5.07026 10.1097 5.07026C7.0763 5.07026 5.1865 7.33239 5.1865 9.85918C5.1865 10.7304 5.44339 11.3448 5.84574 11.8205C6.03076 12.039 6.05648 12.127 5.98947 12.3779C5.94153 12.5618 5.83134 13.0048 5.78575 13.1804C5.71915 13.4336 5.51398 13.5241 5.28505 13.4306C3.88787 12.8602 3.23712 11.3302 3.23712 9.61026C3.23712 6.76961 5.6329 3.36349 10.3842 3.36349C14.2021 3.36349 16.715 6.12621 16.715 9.09187C16.715 13.0146 14.5341 15.9453 11.3193 15.9453C10.2396 15.9453 9.22404 15.3617 8.8762 14.6989C8.8762 14.6989 8.29562 17.0028 8.17265 17.4478C7.96068 18.2188 7.54564 18.9893 7.16616 19.5899C8.06557 19.8555 9.01564 20 10.0003 20C15.5226 20 20 15.5229 20 9.99993C20 4.47709 15.5226 0 10.0003 0Z" fill="white"/>
</svg>
