<svg width="20" height="16" viewBox="0 0 20 16" fill="none" xmlns="http://www.w3.org/2000/svg">
<path d="M20 1.89406C19.2642 2.21636 18.4718 2.43124 17.643 2.53071C18.492 2.02935 19.1389 1.2375 19.4461 0.298433C18.6537 0.756031 17.7764 1.09426 16.8425 1.27332C16.0946 0.48943 15.0273 0 13.8468 0C11.5787 0 9.74328 1.80652 9.74328 4.0388C9.74328 4.35712 9.77966 4.66352 9.84839 4.95797C6.44027 4.79085 3.41621 3.18329 1.39074 0.740114C1.03901 1.33698 0.836871 2.02935 0.836871 2.76946C0.836871 4.17011 1.56054 5.40761 2.6602 6.13181C1.98908 6.11191 1.35436 5.92887 0.800485 5.62646C0.800485 5.64238 0.800485 5.65829 0.800485 5.67819C0.800485 7.63591 2.21548 9.26735 4.09137 9.6374C3.74773 9.72892 3.38387 9.78065 3.01193 9.78065C2.74914 9.78065 2.4904 9.75678 2.23974 9.70903C2.76127 11.3126 4.27734 12.4825 6.07237 12.5143C4.6695 13.5966 2.89873 14.2412 0.978371 14.2412C0.646857 14.2412 0.319385 14.2213 0 14.1855C1.81524 15.3315 3.97413 16 6.29068 16C13.8387 16 17.9664 9.8483 17.9664 4.50833C17.9664 4.33325 17.9624 4.15817 17.9543 3.98707C18.7548 3.41408 19.4502 2.70182 20 1.89406Z" fill="white"/>
</svg>
