<svg width="20" height="14" viewBox="0 0 20 14" fill="none" xmlns="http://www.w3.org/2000/svg">
<path d="M10.4431 13.483L6.33986 13.4125C5.01133 13.3879 3.67949 13.4369 2.37701 13.1824C0.395628 12.802 0.25526 10.9371 0.10838 9.37274C-0.0940059 7.17349 -0.0156563 4.93432 0.366272 2.75343C0.581883 1.52972 1.4304 0.799528 2.7426 0.720069C7.17225 0.4317 11.6314 0.465874 16.0512 0.600409C16.518 0.612742 16.988 0.68015 17.4482 0.756879C19.7203 1.13111 19.7757 3.2445 19.923 5.02357C20.0698 6.82101 20.0078 8.62767 19.7271 10.4129C19.5019 11.891 19.0709 13.1305 17.2524 13.2501C14.9738 13.4066 12.7476 13.5326 10.4626 13.4925C10.4627 13.483 10.4496 13.483 10.4431 13.483ZM8.03079 9.74085C9.74786 8.81446 11.4322 7.9035 13.1394 6.98332C11.4191 6.05692 9.73804 5.14596 8.03079 4.22578V9.74085Z" fill="white"/>
</svg>
